<?xml version="1.0" encoding="UTF-8" standalone="no"?>
<svg
   xmlns:dc="http://purl.org/dc/elements/1.1/"
   xmlns:cc="http://creativecommons.org/ns#"
   xmlns:rdf="http://www.w3.org/1999/02/22-rdf-syntax-ns#"
   xmlns:svg="http://www.w3.org/2000/svg"
   xmlns="http://www.w3.org/2000/svg"
   id="svg110"
   height="76.739998mm"
   width="307.09mm"
   version="1.0">
  <metadata
     id="metadata114">
    <rdf:RDF>
      <cc:Work
         rdf:about="">
        <dc:format>image/svg+xml</dc:format>
        <dc:type
           rdf:resource="http://purl.org/dc/dcmitype/StillImage" />
      </cc:Work>
    </rdf:RDF>
  </metadata>
  <defs
     id="defs6">
    <clipPath
       id="clipEmfPath1"
       clipPathUnits="userSpaceOnUse">
      <path
         id="path2"
         d="M 0.6405533,0.80069163 L 1161.163,0.80069163 L 1161.163,290.8112 L 0.6405533,290.8112 z" />
    </clipPath>
    <pattern
       y="0"
       x="0"
       height="6"
       width="6"
       patternUnits="userSpaceOnUse"
       id="EMFhbasepattern" />
  </defs>
  <path
     id="path8"
     d="  M 1.3611758,280.88262   L 1.3611758,272.71557   L 4.0835273,272.71557   L 4.0835273,280.88262   z  M 1.3611758,269.99322   L 1.3611758,261.82616   L 4.0835273,261.82616   L 4.0835273,269.99322   z  M 1.3611758,259.10381   L 1.3611758,250.93676   L 4.0835273,250.93676   L 4.0835273,259.10381   z  M 1.3611758,248.21441   L 1.3611758,240.04735   L 4.0835273,240.04735   L 4.0835273,248.21441   z  M 1.3611758,237.325   L 1.3611758,229.15794   L 4.0835273,229.15794   L 4.0835273,237.325   z  M 1.3611758,226.43559   L 1.3611758,218.26854   L 4.0835273,218.26854   L 4.0835273,226.43559   z  M 1.3611758,215.54619   L 1.3611758,207.37913   L 4.0835273,207.37913   L 4.0835273,215.54619   z  M 1.3611758,204.65678   L 1.3611758,196.48973   L 4.0835273,196.48973   L 4.0835273,204.65678   z  M 1.3611758,193.76737   L 1.3611758,185.60032   L 4.0835273,185.60032   L 4.0835273,193.76737   z  M 1.3611758,182.87797   L 1.3611758,174.71091   L 4.0835273,174.71091   L 4.0835273,182.87797   z  M 1.3611758,171.98856   L 1.3611758,163.82151   L 4.0835273,163.82151   L 4.0835273,171.98856   z  M 1.3611758,161.09916   L 1.3611758,152.9321   L 4.0835273,152.9321   L 4.0835273,161.09916   z  M 1.3611758,150.20975   L 1.3611758,142.0427   L 4.0835273,142.0427   L 4.0835273,150.20975   z  M 1.3611758,139.32034   L 1.3611758,131.15329   L 4.0835273,131.15329   L 4.0835273,139.32034   z  M 1.3611758,128.43094   L 1.3611758,120.26388   L 4.0835273,120.26388   L 4.0835273,128.43094   z  M 1.3611758,117.54153   L 1.3611758,109.37448   L 4.0835273,109.37448   L 4.0835273,117.54153   z  M 1.3611758,106.65213   L 1.3611758,98.485071   L 4.0835273,98.485071   L 4.0835273,106.65213   z  M 1.3611758,95.762719   L 1.3611758,87.595664   L 4.0835273,87.595664   L 4.0835273,95.762719   z  M 1.3611758,84.873313   L 1.3611758,76.706258   L 4.0835273,76.706258   L 4.0835273,84.873313   z  M 1.3611758,73.983907   L 1.3611758,65.816852   L 4.0835273,65.816852   L 4.0835273,73.983907   z  M 1.3611758,63.094501   L 1.3611758,54.927446   L 4.0835273,54.927446   L 4.0835273,63.094501   z  M 1.3611758,52.205094   L 1.3611758,44.03804   L 4.0835273,44.03804   L 4.0835273,52.205094   z  M 1.3611758,41.315688   L 1.3611758,33.148634   L 4.0835273,33.148634   L 4.0835273,41.315688   z  M 1.3611758,30.426282   L 1.3611758,22.259227   L 4.0835273,22.259227   L 4.0835273,30.426282   z  M 1.3611758,19.536876   L 1.3611758,11.369821   L 4.0835273,11.369821   L 4.0835273,19.536876   z  M 1.3611758,8.6474696   L 1.3611758,2.7223515   C 1.3611758,1.9817118 1.9817118,1.3611758 2.7223515,1.3611758   L 4.9642881,1.3611758   L 4.9642881,4.0835273   L 2.7223515,4.0835273   L 4.0835273,2.7223515   L 4.0835273,8.6474696   z  M 7.6866397,1.3611758   L 15.853694,1.3611758   L 15.853694,4.0835273   L 7.6866397,4.0835273   z  M 18.576046,1.3611758   L 26.7431,1.3611758   L 26.7431,4.0835273   L 18.576046,4.0835273   z  M 29.465452,1.3611758   L 37.632507,1.3611758   L 37.632507,4.0835273   L 29.465452,4.0835273   z  M 40.354858,1.3611758   L 48.521913,1.3611758   L 48.521913,4.0835273   L 40.354858,4.0835273   z  M 51.244264,1.3611758   L 59.411319,1.3611758   L 59.411319,4.0835273   L 51.244264,4.0835273   z  M 62.133671,1.3611758   L 70.300725,1.3611758   L 70.300725,4.0835273   L 62.133671,4.0835273   z  M 73.023077,1.3611758   L 81.190131,1.3611758   L 81.190131,4.0835273   L 73.023077,4.0835273   z  M 83.912483,1.3611758   L 92.079538,1.3611758   L 92.079538,4.0835273   L 83.912483,4.0835273   z  M 94.801889,1.3611758   L 102.96894,1.3611758   L 102.96894,4.0835273   L 94.801889,4.0835273   z  M 105.6913,1.3611758   L 113.85835,1.3611758   L 113.85835,4.0835273   L 105.6913,4.0835273   z  M 116.5807,1.3611758   L 124.74776,1.3611758   L 124.74776,4.0835273   L 116.5807,4.0835273   z  M 127.47011,1.3611758   L 135.63716,1.3611758   L 135.63716,4.0835273   L 127.47011,4.0835273   z  M 138.35951,1.3611758   L 146.52657,1.3611758   L 146.52657,4.0835273   L 138.35951,4.0835273   z  M 149.24892,1.3611758   L 157.41597,1.3611758   L 157.41597,4.0835273   L 149.24892,4.0835273   z  M 160.13833,1.3611758   L 168.30538,1.3611758   L 168.30538,4.0835273   L 160.13833,4.0835273   z  M 171.02773,1.3611758   L 179.19479,1.3611758   L 179.19479,4.0835273   L 171.02773,4.0835273   z  M 181.91714,1.3611758   L 190.08419,1.3611758   L 190.08419,4.0835273   L 181.91714,4.0835273   z  M 192.80654,1.3611758   L 200.9736,1.3611758   L 200.9736,4.0835273   L 192.80654,4.0835273   z  M 203.69595,1.3611758   L 211.86301,1.3611758   L 211.86301,4.0835273   L 203.69595,4.0835273   z  M 214.58536,1.3611758   L 222.75241,1.3611758   L 222.75241,4.0835273   L 214.58536,4.0835273   z  M 225.47476,1.3611758   L 233.64182,1.3611758   L 233.64182,4.0835273   L 225.47476,4.0835273   z  M 236.36417,1.3611758   L 244.53122,1.3611758   L 244.53122,4.0835273   L 236.36417,4.0835273   z  M 247.25358,1.3611758   L 255.42063,1.3611758   L 255.42063,4.0835273   L 247.25358,4.0835273   z  M 258.14298,1.3611758   L 266.31004,1.3611758   L 266.31004,4.0835273   L 258.14298,4.0835273   z  M 269.03239,1.3611758   L 277.19944,1.3611758   L 277.19944,4.0835273   L 269.03239,4.0835273   z  M 279.92179,1.3611758   L 288.08885,1.3611758   L 288.08885,4.0835273   L 279.92179,4.0835273   z  M 290.8112,1.3611758   L 298.97826,1.3611758   L 298.97826,4.0835273   L 290.8112,4.0835273   z  M 301.70061,1.3611758   L 309.86766,1.3611758   L 309.86766,4.0835273   L 301.70061,4.0835273   z  M 312.59001,1.3611758   L 320.75707,1.3611758   L 320.75707,4.0835273   L 312.59001,4.0835273   z  M 323.47942,1.3611758   L 331.64647,1.3611758   L 331.64647,4.0835273   L 323.47942,4.0835273   z  M 334.36883,1.3611758   L 342.53588,1.3611758   L 342.53588,4.0835273   L 334.36883,4.0835273   z  M 345.25823,1.3611758   L 353.42529,1.3611758   L 353.42529,4.0835273   L 345.25823,4.0835273   z  M 356.14764,1.3611758   L 364.31469,1.3611758   L 364.31469,4.0835273   L 356.14764,4.0835273   z  M 367.03704,1.3611758   L 375.2041,1.3611758   L 375.2041,4.0835273   L 367.03704,4.0835273   z  M 377.92645,1.3611758   L 386.0935,1.3611758   L 386.0935,4.0835273   L 377.92645,4.0835273   z  M 388.81586,1.3611758   L 396.98291,1.3611758   L 396.98291,4.0835273   L 388.81586,4.0835273   z  M 399.70526,1.3611758   L 407.87232,1.3611758   L 407.87232,4.0835273   L 399.70526,4.0835273   z  M 410.59467,1.3611758   L 418.76172,1.3611758   L 418.76172,4.0835273   L 410.59467,4.0835273   z  M 421.48407,1.3611758   L 429.65113,1.3611758   L 429.65113,4.0835273   L 421.48407,4.0835273   z  M 432.37348,1.3611758   L 437.49791,1.3611758   C 438.25856,1.3611758 438.85908,1.9817118 438.85908,2.7223515   L 438.85908,5.7649797   L 436.13673,5.7649797   L 436.13673,2.7223515   L 437.49791,4.0835273   L 432.37348,4.0835273   z  M 438.85908,8.4873313   L 438.85908,16.654386   L 436.13673,16.654386   L 436.13673,8.4873313   z  M 438.85908,19.376737   L 438.85908,27.543792   L 436.13673,27.543792   L 436.13673,19.376737   z  M 438.85908,30.266144   L 438.85908,38.433198   L 436.13673,38.433198   L 436.13673,30.266144   z  M 438.85908,41.15555   L 438.85908,49.322604   L 436.13673,49.322604   L 436.13673,41.15555   z  M 438.85908,52.044956   L 438.85908,60.212011   L 436.13673,60.212011   L 436.13673,52.044956   z  M 438.85908,62.934362   L 438.85908,71.101417   L 436.13673,71.101417   L 436.13673,62.934362   z  M 438.85908,73.823768   L 438.85908,81.990823   L 436.13673,81.990823   L 436.13673,73.823768   z  M 438.85908,84.713175   L 438.85908,92.880229   L 436.13673,92.880229   L 436.13673,84.713175   z  M 438.85908,95.602581   L 438.85908,103.76964   L 436.13673,103.76964   L 436.13673,95.602581   z  M 438.85908,106.49199   L 438.85908,114.65904   L 436.13673,114.65904   L 436.13673,106.49199   z  M 438.85908,117.38139   L 438.85908,125.54845   L 436.13673,125.54845   L 436.13673,117.38139   z  M 438.85908,128.2708   L 438.85908,136.43785   L 436.13673,136.43785   L 436.13673,128.2708   z  M 438.85908,139.16021   L 438.85908,147.32726   L 436.13673,147.32726   L 436.13673,139.16021   z  M 438.85908,150.04961   L 438.85908,158.21667   L 436.13673,158.21667   L 436.13673,150.04961   z  M 438.85908,160.93902   L 438.85908,169.10607   L 436.13673,169.10607   L 436.13673,160.93902   z  M 438.85908,171.82842   L 438.85908,179.99548   L 436.13673,179.99548   L 436.13673,171.82842   z  M 438.85908,182.71783   L 438.85908,190.88488   L 436.13673,190.88488   L 436.13673,182.71783   z  M 438.85908,193.60724   L 438.85908,201.77429   L 436.13673,201.77429   L 436.13673,193.60724   z  M 438.85908,204.49664   L 438.85908,212.6637   L 436.13673,212.6637   L 436.13673,204.49664   z  M 438.85908,215.38605   L 438.85908,223.5531   L 436.13673,223.5531   L 436.13673,215.38605   z  M 438.85908,226.27545   L 438.85908,234.44251   L 436.13673,234.44251   L 436.13673,226.27545   z  M 438.85908,237.16486   L 438.85908,245.33192   L 436.13673,245.33192   L 436.13673,237.16486   z  M 438.85908,248.05427   L 438.85908,256.22132   L 436.13673,256.22132   L 436.13673,248.05427   z  M 438.85908,258.94367   L 438.85908,267.11073   L 436.13673,267.11073   L 436.13673,258.94367   z  M 438.85908,269.83308   L 438.85908,278.00013   L 436.13673,278.00013   L 436.13673,269.83308   z  M 438.85908,280.72249   L 438.85908,280.88262   C 438.85908,281.64328 438.25856,282.2438 437.49791,282.2438   L 429.49099,282.2438   L 429.49099,279.52145   L 437.49791,279.52145   L 436.13673,280.88262   L 436.13673,280.72249   z  M 426.76864,282.2438   L 418.60158,282.2438   L 418.60158,279.52145   L 426.76864,279.52145   z  M 415.87923,282.2438   L 407.71218,282.2438   L 407.71218,279.52145   L 415.87923,279.52145   z  M 404.98983,282.2438   L 396.82277,282.2438   L 396.82277,279.52145   L 404.98983,279.52145   z  M 394.10042,282.2438   L 385.93337,282.2438   L 385.93337,279.52145   L 394.10042,279.52145   z  M 383.21101,282.2438   L 375.04396,282.2438   L 375.04396,279.52145   L 383.21101,279.52145   z  M 372.32161,282.2438   L 364.15455,282.2438   L 364.15455,279.52145   L 372.32161,279.52145   z  M 361.4322,282.2438   L 353.26515,282.2438   L 353.26515,279.52145   L 361.4322,279.52145   z  M 350.5428,282.2438   L 342.37574,282.2438   L 342.37574,279.52145   L 350.5428,279.52145   z  M 339.65339,282.2438   L 331.48634,282.2438   L 331.48634,279.52145   L 339.65339,279.52145   z  M 328.76398,282.2438   L 320.59693,282.2438   L 320.59693,279.52145   L 328.76398,279.52145   z  M 317.87458,282.2438   L 309.70752,282.2438   L 309.70752,279.52145   L 317.87458,279.52145   z  M 306.98517,282.2438   L 298.81812,282.2438   L 298.81812,279.52145   L 306.98517,279.52145   z  M 296.09577,282.2438   L 287.92871,282.2438   L 287.92871,279.52145   L 296.09577,279.52145   z  M 285.20636,282.2438   L 277.0393,282.2438   L 277.0393,279.52145   L 285.20636,279.52145   z  M 274.31695,282.2438   L 266.1499,282.2438   L 266.1499,279.52145   L 274.31695,279.52145   z  M 263.42755,282.2438   L 255.26049,282.2438   L 255.26049,279.52145   L 263.42755,279.52145   z  M 252.53814,282.2438   L 244.37109,282.2438   L 244.37109,279.52145   L 252.53814,279.52145   z  M 241.64873,282.2438   L 233.48168,282.2438   L 233.48168,279.52145   L 241.64873,279.52145   z  M 230.75933,282.2438   L 222.59227,282.2438   L 222.59227,279.52145   L 230.75933,279.52145   z  M 219.86992,282.2438   L 211.70287,282.2438   L 211.70287,279.52145   L 219.86992,279.52145   z  M 208.98052,282.2438   L 200.81346,282.2438   L 200.81346,279.52145   L 208.98052,279.52145   z  M 198.09111,282.2438   L 189.92405,282.2438   L 189.92405,279.52145   L 198.09111,279.52145   z  M 187.2017,282.2438   L 179.03465,282.2438   L 179.03465,279.52145   L 187.2017,279.52145   z  M 176.3123,282.2438   L 168.14524,282.2438   L 168.14524,279.52145   L 176.3123,279.52145   z  M 165.42289,282.2438   L 157.25584,282.2438   L 157.25584,279.52145   L 165.42289,279.52145   z  M 154.53348,282.2438   L 146.36643,282.2438   L 146.36643,279.52145   L 154.53348,279.52145   z  M 143.64408,282.2438   L 135.47702,282.2438   L 135.47702,279.52145   L 143.64408,279.52145   z  M 132.75467,282.2438   L 124.58762,282.2438   L 124.58762,279.52145   L 132.75467,279.52145   z  M 121.86527,282.2438   L 113.69821,282.2438   L 113.69821,279.52145   L 121.86527,279.52145   z  M 110.97586,282.2438   L 102.80881,282.2438   L 102.80881,279.52145   L 110.97586,279.52145   z  M 100.08645,282.2438   L 91.919399,282.2438   L 91.919399,279.52145   L 100.08645,279.52145   z  M 89.197048,282.2438   L 81.029993,282.2438   L 81.029993,279.52145   L 89.197048,279.52145   z  M 78.307642,282.2438   L 70.140587,282.2438   L 70.140587,279.52145   L 78.307642,279.52145   z  M 67.418235,282.2438   L 59.251181,282.2438   L 59.251181,279.52145   L 67.418235,279.52145   z  M 56.528829,282.2438   L 48.361775,282.2438   L 48.361775,279.52145   L 56.528829,279.52145   z  M 45.639423,282.2438   L 37.472368,282.2438   L 37.472368,279.52145   L 45.639423,279.52145   z  M 34.750017,282.2438   L 26.582962,282.2438   L 26.582962,279.52145   L 34.750017,279.52145   z  M 23.860611,282.2438   L 15.693556,282.2438   L 15.693556,279.52145   L 23.860611,279.52145   z  M 12.971204,282.2438   L 4.8041498,282.2438   L 4.8041498,279.52145   L 12.971204,279.52145   z "
     clip-path="url(#clipEmfPath1)"
     style="fill:#404040;fill-rule:nonzero;fill-opacity:1;stroke:#404040;stroke-width:0.02001729px;stroke-linecap:butt;stroke-linejoin:round;stroke-miterlimit:4;stroke-dasharray:none;stroke-opacity:1;" />
  <path
     id="path10"
     d="  M 561.68518,280.88262   L 561.68518,272.71557   L 564.40753,272.71557   L 564.40753,280.88262   z  M 561.68518,269.99322   L 561.68518,261.82616   L 564.40753,261.82616   L 564.40753,269.99322   z  M 561.68518,259.10381   L 561.68518,250.93676   L 564.40753,250.93676   L 564.40753,259.10381   z  M 561.68518,248.21441   L 561.68518,240.04735   L 564.40753,240.04735   L 564.40753,248.21441   z  M 561.68518,237.325   L 561.68518,229.15794   L 564.40753,229.15794   L 564.40753,237.325   z  M 561.68518,226.43559   L 561.68518,218.26854   L 564.40753,218.26854   L 564.40753,226.43559   z  M 561.68518,215.54619   L 561.68518,207.37913   L 564.40753,207.37913   L 564.40753,215.54619   z  M 561.68518,204.65678   L 561.68518,196.48973   L 564.40753,196.48973   L 564.40753,204.65678   z  M 561.68518,193.76737   L 561.68518,185.60032   L 564.40753,185.60032   L 564.40753,193.76737   z  M 561.68518,182.87797   L 561.68518,174.71091   L 564.40753,174.71091   L 564.40753,182.87797   z  M 561.68518,171.98856   L 561.68518,163.82151   L 564.40753,163.82151   L 564.40753,171.98856   z  M 561.68518,161.09916   L 561.68518,152.9321   L 564.40753,152.9321   L 564.40753,161.09916   z  M 561.68518,150.20975   L 561.68518,142.0427   L 564.40753,142.0427   L 564.40753,150.20975   z  M 561.68518,139.32034   L 561.68518,131.15329   L 564.40753,131.15329   L 564.40753,139.32034   z  M 561.68518,128.43094   L 561.68518,120.26388   L 564.40753,120.26388   L 564.40753,128.43094   z  M 561.68518,117.54153   L 561.68518,109.37448   L 564.40753,109.37448   L 564.40753,117.54153   z  M 561.68518,106.65213   L 561.68518,98.485071   L 564.40753,98.485071   L 564.40753,106.65213   z  M 561.68518,95.762719   L 561.68518,87.595664   L 564.40753,87.595664   L 564.40753,95.762719   z  M 561.68518,84.873313   L 561.68518,76.706258   L 564.40753,76.706258   L 564.40753,84.873313   z  M 561.68518,73.983907   L 561.68518,65.816852   L 564.40753,65.816852   L 564.40753,73.983907   z  M 561.68518,63.094501   L 561.68518,54.927446   L 564.40753,54.927446   L 564.40753,63.094501   z  M 561.68518,52.205094   L 561.68518,44.03804   L 564.40753,44.03804   L 564.40753,52.205094   z  M 561.68518,41.315688   L 561.68518,33.148634   L 564.40753,33.148634   L 564.40753,41.315688   z  M 561.68518,30.426282   L 561.68518,22.259227   L 564.40753,22.259227   L 564.40753,30.426282   z  M 561.68518,19.536876   L 561.68518,11.369821   L 564.40753,11.369821   L 564.40753,19.536876   z  M 561.68518,8.6474696   L 561.68518,2.7223515   C 561.68518,2.0017291 562.32573,1.3611758 563.04635,1.3611758   L 565.28829,1.3611758   L 565.28829,4.0835273   L 563.04635,4.0835273   L 564.40753,2.7223515   L 564.40753,8.6474696   z  M 568.01064,1.3611758   L 576.1777,1.3611758   L 576.1777,4.0835273   L 568.01064,4.0835273   z  M 578.90005,1.3611758   L 587.0671,1.3611758   L 587.0671,4.0835273   L 578.90005,4.0835273   z  M 589.78946,1.3611758   L 597.95651,1.3611758   L 597.95651,4.0835273   L 589.78946,4.0835273   z  M 600.67886,1.3611758   L 608.84592,1.3611758   L 608.84592,4.0835273   L 600.67886,4.0835273   z  M 611.56827,1.3611758   L 619.73532,1.3611758   L 619.73532,4.0835273   L 611.56827,4.0835273   z  M 622.45767,1.3611758   L 630.62473,1.3611758   L 630.62473,4.0835273   L 622.45767,4.0835273   z  M 633.34708,1.3611758   L 641.51413,1.3611758   L 641.51413,4.0835273   L 633.34708,4.0835273   z  M 644.23649,1.3611758   L 652.40354,1.3611758   L 652.40354,4.0835273   L 644.23649,4.0835273   z  M 655.12589,1.3611758   L 663.29295,1.3611758   L 663.29295,4.0835273   L 655.12589,4.0835273   z  M 666.0153,1.3611758   L 674.18235,1.3611758   L 674.18235,4.0835273   L 666.0153,4.0835273   z  M 676.9047,1.3611758   L 685.07176,1.3611758   L 685.07176,4.0835273   L 676.9047,4.0835273   z  M 687.79411,1.3611758   L 695.96117,1.3611758   L 695.96117,4.0835273   L 687.79411,4.0835273   z  M 698.68352,1.3611758   L 706.85057,1.3611758   L 706.85057,4.0835273   L 698.68352,4.0835273   z  M 709.57292,1.3611758   L 717.73998,1.3611758   L 717.73998,4.0835273   L 709.57292,4.0835273   z  M 720.46233,1.3611758   L 728.62938,1.3611758   L 728.62938,4.0835273   L 720.46233,4.0835273   z  M 731.35174,1.3611758   L 739.51879,1.3611758   L 739.51879,4.0835273   L 731.35174,4.0835273   z  M 742.24114,1.3611758   L 750.4082,1.3611758   L 750.4082,4.0835273   L 742.24114,4.0835273   z  M 753.13055,1.3611758   L 761.2976,1.3611758   L 761.2976,4.0835273   L 753.13055,4.0835273   z  M 764.01995,1.3611758   L 772.18701,1.3611758   L 772.18701,4.0835273   L 764.01995,4.0835273   z  M 774.90936,1.3611758   L 783.07642,1.3611758   L 783.07642,4.0835273   L 774.90936,4.0835273   z  M 785.79877,1.3611758   L 793.96582,1.3611758   L 793.96582,4.0835273   L 785.79877,4.0835273   z  M 796.68817,1.3611758   L 804.85523,1.3611758   L 804.85523,4.0835273   L 796.68817,4.0835273   z  M 807.57758,1.3611758   L 815.74463,1.3611758   L 815.74463,4.0835273   L 807.57758,4.0835273   z  M 818.46699,1.3611758   L 826.63404,1.3611758   L 826.63404,4.0835273   L 818.46699,4.0835273   z  M 829.35639,1.3611758   L 837.52345,1.3611758   L 837.52345,4.0835273   L 829.35639,4.0835273   z  M 840.2458,1.3611758   L 848.41285,1.3611758   L 848.41285,4.0835273   L 840.2458,4.0835273   z  M 851.1352,1.3611758   L 859.30226,1.3611758   L 859.30226,4.0835273   L 851.1352,4.0835273   z  M 862.02461,1.3611758   L 870.19166,1.3611758   L 870.19166,4.0835273   L 862.02461,4.0835273   z  M 872.91402,1.3611758   L 881.08107,1.3611758   L 881.08107,4.0835273   L 872.91402,4.0835273   z  M 883.80342,1.3611758   L 891.97048,1.3611758   L 891.97048,4.0835273   L 883.80342,4.0835273   z  M 894.69283,1.3611758   L 902.85988,1.3611758   L 902.85988,4.0835273   L 894.69283,4.0835273   z  M 906.78327,2.8824899   L 906.78327,11.049545   L 904.06092,11.049545   L 904.06092,2.8824899   z  M 906.78327,13.771896   L 906.78327,21.938951   L 904.06092,21.938951   L 904.06092,13.771896   z  M 906.78327,24.661302   L 906.78327,32.828357   L 904.06092,32.828357   L 904.06092,24.661302   z  M 906.78327,35.550708   L 906.78327,43.717763   L 904.06092,43.717763   L 904.06092,35.550708   z  M 906.78327,46.440115   L 906.78327,54.607169   L 904.06092,54.607169   L 904.06092,46.440115   z  M 906.78327,57.329521   L 906.78327,65.496575   L 904.06092,65.496575   L 904.06092,57.329521   z  M 906.78327,68.218927   L 906.78327,76.385982   L 904.06092,76.385982   L 904.06092,68.218927   z  M 906.78327,79.108333   L 906.78327,87.275388   L 904.06092,87.275388   L 904.06092,79.108333   z  M 906.78327,89.997739   L 906.78327,98.164794   L 904.06092,98.164794   L 904.06092,89.997739   z  M 906.78327,100.88715   L 906.78327,109.0542   L 904.06092,109.0542   L 904.06092,100.88715   z  M 906.78327,111.77655   L 906.78327,119.94361   L 904.06092,119.94361   L 904.06092,111.77655   z  M 906.78327,122.66596   L 906.78327,130.83301   L 904.06092,130.83301   L 904.06092,122.66596   z  M 906.78327,133.55536   L 906.78327,141.72242   L 904.06092,141.72242   L 904.06092,133.55536   z  M 906.78327,144.44477   L 906.78327,152.61182   L 904.06092,152.61182   L 904.06092,144.44477   z  M 906.78327,155.33418   L 906.78327,163.50123   L 904.06092,163.50123   L 904.06092,155.33418   z  M 906.78327,166.22358   L 906.78327,174.39064   L 904.06092,174.39064   L 904.06092,166.22358   z  M 906.78327,177.11299   L 906.78327,185.28004   L 904.06092,185.28004   L 904.06092,177.11299   z  M 906.78327,188.00239   L 906.78327,196.16945   L 904.06092,196.16945   L 904.06092,188.00239   z  M 906.78327,198.8918   L 906.78327,207.05886   L 904.06092,207.05886   L 904.06092,198.8918   z  M 906.78327,209.78121   L 906.78327,217.94826   L 904.06092,217.94826   L 904.06092,209.78121   z  M 906.78327,220.67061   L 906.78327,228.83767   L 904.06092,228.83767   L 904.06092,220.67061   z  M 906.78327,231.56002   L 906.78327,239.72707   L 904.06092,239.72707   L 904.06092,231.56002   z  M 906.78327,242.44943   L 906.78327,250.61648   L 904.06092,250.61648   L 904.06092,242.44943   z  M 906.78327,253.33883   L 906.78327,261.50589   L 904.06092,261.50589   L 904.06092,253.33883   z  M 906.78327,264.22824   L 906.78327,272.39529   L 904.06092,272.39529   L 904.06092,264.22824   z  M 906.78327,275.11764   L 906.78327,280.88262   C 906.78327,281.64328 906.18275,282.2438 905.4221,282.2438   L 903.02002,282.2438   L 903.02002,279.52145   L 905.4221,279.52145   L 904.06092,280.88262   L 904.06092,275.11764   z  M 900.29767,282.2438   L 892.13062,282.2438   L 892.13062,279.52145   L 900.29767,279.52145   z  M 889.40826,282.2438   L 881.24121,282.2438   L 881.24121,279.52145   L 889.40826,279.52145   z  M 878.51886,282.2438   L 870.3518,282.2438   L 870.3518,279.52145   L 878.51886,279.52145   z  M 867.62945,282.2438   L 859.4624,282.2438   L 859.4624,279.52145   L 867.62945,279.52145   z  M 856.74005,282.2438   L 848.57299,282.2438   L 848.57299,279.52145   L 856.74005,279.52145   z  M 845.85064,282.2438   L 837.68358,282.2438   L 837.68358,279.52145   L 845.85064,279.52145   z  M 834.96123,282.2438   L 826.79418,282.2438   L 826.79418,279.52145   L 834.96123,279.52145   z  M 824.07183,282.2438   L 815.90477,282.2438   L 815.90477,279.52145   L 824.07183,279.52145   z  M 813.18242,282.2438   L 805.01537,282.2438   L 805.01537,279.52145   L 813.18242,279.52145   z  M 802.29301,282.2438   L 794.12596,282.2438   L 794.12596,279.52145   L 802.29301,279.52145   z  M 791.40361,282.2438   L 783.23655,282.2438   L 783.23655,279.52145   L 791.40361,279.52145   z  M 780.5142,282.2438   L 772.34715,282.2438   L 772.34715,279.52145   L 780.5142,279.52145   z  M 769.6248,282.2438   L 761.45774,282.2438   L 761.45774,279.52145   L 769.6248,279.52145   z  M 758.73539,282.2438   L 750.56833,282.2438   L 750.56833,279.52145   L 758.73539,279.52145   z  M 747.84598,282.2438   L 739.67893,282.2438   L 739.67893,279.52145   L 747.84598,279.52145   z  M 736.95658,282.2438   L 728.78952,282.2438   L 728.78952,279.52145   L 736.95658,279.52145   z  M 726.06717,282.2438   L 717.90012,282.2438   L 717.90012,279.52145   L 726.06717,279.52145   z  M 715.17776,282.2438   L 707.01071,282.2438   L 707.01071,279.52145   L 715.17776,279.52145   z  M 704.28836,282.2438   L 696.1213,282.2438   L 696.1213,279.52145   L 704.28836,279.52145   z  M 693.39895,282.2438   L 685.2319,282.2438   L 685.2319,279.52145   L 693.39895,279.52145   z  M 682.50955,282.2438   L 674.34249,282.2438   L 674.34249,279.52145   L 682.50955,279.52145   z  M 671.62014,282.2438   L 663.45309,282.2438   L 663.45309,279.52145   L 671.62014,279.52145   z  M 660.73073,282.2438   L 652.56368,282.2438   L 652.56368,279.52145   L 660.73073,279.52145   z  M 649.84133,282.2438   L 641.67427,282.2438   L 641.67427,279.52145   L 649.84133,279.52145   z  M 638.95192,282.2438   L 630.78487,282.2438   L 630.78487,279.52145   L 638.95192,279.52145   z  M 628.06252,282.2438   L 619.89546,282.2438   L 619.89546,279.52145   L 628.06252,279.52145   z  M 617.17311,282.2438   L 609.00605,282.2438   L 609.00605,279.52145   L 617.17311,279.52145   z  M 606.2837,282.2438   L 598.11665,282.2438   L 598.11665,279.52145   L 606.2837,279.52145   z  M 595.3943,282.2438   L 587.22724,282.2438   L 587.22724,279.52145   L 595.3943,279.52145   z  M 584.50489,282.2438   L 576.33784,282.2438   L 576.33784,279.52145   L 584.50489,279.52145   z  M 573.61548,282.2438   L 565.44843,282.2438   L 565.44843,279.52145   L 573.61548,279.52145   z "
     clip-path="url(#clipEmfPath1)"
     style="fill:#404040;fill-rule:nonzero;fill-opacity:1;stroke:#404040;stroke-width:0.040034581px;stroke-linecap:butt;stroke-linejoin:round;stroke-miterlimit:4;stroke-dasharray:none;stroke-opacity:1;" />
  <path
     id="path12"
     d="  M 26.342755,69.580103   L 26.342755,203.93616   L 247.65392,203.93616   L 247.65392,69.580103   L 26.342755,69.580103   z "
     style="fill:#7f7f7f;fill-rule:evenodd;fill-opacity:1;stroke:none;" />
  <text
     id="text18"
     y="0.000000"
     x="0.000000"
     transform="matrix(1.000000,-0.000000,0.000000,1.000000,84.588027,117.110397)"
     style="font-size:24.000000px;font-style:normal;font-variant:normal;font-weight:400;font-stretch:Normal;line-height:125.000000%;letter-spacing:0px;word-spacing:0px;fill:#000000;fill-opacity:1;stroke:none;font-family:Lucida Sans;text-align:start;text-anchor:start;"
     xml:space="preserve"><tspan
       id="tspan16"
       y="0.000000"
       x="0.000000"><tspan
         id="tspan14"
         style="fill:#FFFFFF;font-size:24.000000px;font-style:normal;font-variant:normal;font-weight:400;font-stretch:Normal;font-family:Lucida Sans;"
         dy="0.000000"
         dx="0.000000">Generate </tspan></tspan></text>
  <text
     id="text24"
     y="0.000000"
     x="0.000000"
     transform="matrix(1.000000,-0.000000,0.000000,1.000000,53.841469,145.935296)"
     style="font-size:24.000000px;font-style:normal;font-variant:normal;font-weight:400;font-stretch:Normal;line-height:125.000000%;letter-spacing:0px;word-spacing:0px;fill:#000000;fill-opacity:1;stroke:none;font-family:Lucida Sans;text-align:start;text-anchor:start;"
     xml:space="preserve"><tspan
       id="tspan22"
       y="0.000000"
       x="0.000000"><tspan
         id="tspan20"
         style="fill:#FFFFFF;font-size:24.000000px;font-style:normal;font-variant:normal;font-weight:400;font-stretch:Normal;font-family:Lucida Sans;"
         dy="0.000000"
         dx="0.000000">container flow </tspan></tspan></text>
  <text
     id="text30"
     y="0.000000"
     x="0.000000"
     transform="matrix(1.000000,-0.000000,0.000000,1.000000,111.331128,174.760214)"
     style="font-size:24.000000px;font-style:normal;font-variant:normal;font-weight:400;font-stretch:Normal;line-height:125.000000%;letter-spacing:0px;word-spacing:0px;fill:#000000;fill-opacity:1;stroke:none;font-family:Lucida Sans;text-align:start;text-anchor:start;"
     xml:space="preserve"><tspan
       id="tspan28"
       y="0.000000"
       x="0.000000"><tspan
         id="tspan26"
         style="fill:#FFFFFF;font-size:24.000000px;font-style:normal;font-variant:normal;font-weight:400;font-stretch:Normal;font-family:Lucida Sans;"
         dy="0.000000"
         dx="0.000000">data</tspan></tspan></text>
  <path
     id="path32"
     d="  M 310.90856,69.580103   L 310.90856,203.93616   L 551.91674,203.93616   L 551.91674,69.580103   L 310.90856,69.580103   z "
     style="fill:#7f7f7f;fill-rule:evenodd;fill-opacity:1;stroke:none;" />
  <text
     id="text38"
     y="0.000000"
     x="0.000000"
     transform="matrix(1.000000,-0.000000,0.000000,1.000000,345.937568,131.522847)"
     style="font-size:24.000000px;font-style:normal;font-variant:normal;font-weight:400;font-stretch:Normal;line-height:125.000000%;letter-spacing:0px;word-spacing:0px;fill:#000000;fill-opacity:1;stroke:none;font-family:Lucida Sans;text-align:start;text-anchor:start;"
     xml:space="preserve"><tspan
       id="tspan36"
       y="0.000000"
       x="0.000000"><tspan
         id="tspan34"
         style="fill:#FFFFFF;font-size:24.000000px;font-style:normal;font-variant:normal;font-weight:400;font-stretch:Normal;font-family:Lucida Sans;"
         dy="0.000000"
         dx="0.000000">Check data for </tspan></tspan></text>
  <text
     id="text44"
     y="0.000000"
     x="0.000000"
     transform="matrix(1.000000,-0.000000,0.000000,1.000000,367.556242,160.347765)"
     style="font-size:24.000000px;font-style:normal;font-variant:normal;font-weight:400;font-stretch:Normal;line-height:125.000000%;letter-spacing:0px;word-spacing:0px;fill:#000000;fill-opacity:1;stroke:none;font-family:Lucida Sans;text-align:start;text-anchor:start;"
     xml:space="preserve"><tspan
       id="tspan42"
       y="0.000000"
       x="0.000000"><tspan
         id="tspan40"
         style="fill:#FFFFFF;font-size:24.000000px;font-style:normal;font-variant:normal;font-weight:400;font-stretch:Normal;font-family:Lucida Sans;"
         dy="0.000000"
         dx="0.000000">plausibility </tspan></tspan></text>
  <path
     id="path46"
     d="  M 615.17138,69.580103   L 615.17138,203.93616   L 856.17956,203.93616   L 856.17956,69.580103   L 615.17138,69.580103   z "
     style="fill:#7f7f7f;fill-rule:evenodd;fill-opacity:1;stroke:none;" />
  <text
     id="text52"
     y="0.000000"
     x="0.000000"
     transform="matrix(1.000000,-0.000000,0.000000,1.000000,642.190031,131.522847)"
     style="font-size:24.000000px;font-style:normal;font-variant:normal;font-weight:400;font-stretch:Normal;line-height:125.000000%;letter-spacing:0px;word-spacing:0px;fill:#000000;fill-opacity:1;stroke:none;font-family:Lucida Sans;text-align:start;text-anchor:start;"
     xml:space="preserve"><tspan
       id="tspan50"
       y="0.000000"
       x="0.000000"><tspan
         id="tspan48"
         style="fill:#FFFFFF;font-size:24.000000px;font-style:normal;font-variant:normal;font-weight:400;font-stretch:Normal;font-family:Lucida Sans;"
         dy="0.000000"
         dx="0.000000">Use flow data in </tspan></tspan></text>
  <text
     id="text58"
     y="0.000000"
     x="0.000000"
     transform="matrix(1.000000,-0.000000,0.000000,1.000000,662.847875,160.347765)"
     style="font-size:24.000000px;font-style:normal;font-variant:normal;font-weight:400;font-stretch:Normal;line-height:125.000000%;letter-spacing:0px;word-spacing:0px;fill:#000000;fill-opacity:1;stroke:none;font-family:Lucida Sans;text-align:start;text-anchor:start;"
     xml:space="preserve"><tspan
       id="tspan56"
       y="0.000000"
       x="0.000000"><tspan
         id="tspan54"
         style="fill:#FFFFFF;font-size:24.000000px;font-style:normal;font-variant:normal;font-weight:400;font-stretch:Normal;font-family:Lucida Sans;"
         dy="0.000000"
         dx="0.000000">experiments</tspan></tspan></text>
  <path
     id="path60"
     d="  M 919.4342,69.580103   L 919.4342,203.93616   L 1160.4424,203.93616   L 1160.4424,69.580103   L 919.4342,69.580103   z "
     style="fill:#7f7f7f;fill-rule:evenodd;fill-opacity:1;stroke:none;" />
  <text
     id="text66"
     y="0.000000"
     x="0.000000"
     transform="matrix(1.000000,-0.000000,0.000000,1.000000,969.515976,117.110397)"
     style="font-size:24.000000px;font-style:normal;font-variant:normal;font-weight:400;font-stretch:Normal;line-height:125.000000%;letter-spacing:0px;word-spacing:0px;fill:#000000;fill-opacity:1;stroke:none;font-family:Lucida Sans;text-align:start;text-anchor:start;"
     xml:space="preserve"><tspan
       id="tspan64"
       y="0.000000"
       x="0.000000"><tspan
         id="tspan62"
         style="fill:#FFFFFF;font-size:24.000000px;font-style:normal;font-variant:normal;font-weight:400;font-stretch:Normal;font-family:Lucida Sans;"
         dy="0.000000"
         dx="0.000000">Cross</tspan></tspan></text>
  <text
     id="text72"
     y="0.000000"
     x="0.000000"
     transform="matrix(1.000000,-0.000000,0.000000,1.000000,1035.332828,117.110397)"
     style="font-size:24.000000px;font-style:normal;font-variant:normal;font-weight:400;font-stretch:Normal;line-height:125.000000%;letter-spacing:0px;word-spacing:0px;fill:#000000;fill-opacity:1;stroke:none;font-family:Lucida Sans;text-align:start;text-anchor:start;"
     xml:space="preserve"><tspan
       id="tspan70"
       y="0.000000"
       x="0.000000"><tspan
         id="tspan68"
         style="fill:#FFFFFF;font-size:24.000000px;font-style:normal;font-variant:normal;font-weight:400;font-stretch:Normal;font-family:Lucida Sans;"
         dy="0.000000"
         dx="0.000000">-</tspan></tspan></text>
  <text
     id="text78"
     y="0.000000"
     x="0.000000"
     transform="matrix(1.000000,-0.000000,0.000000,1.000000,1043.019467,117.110397)"
     style="font-size:24.000000px;font-style:normal;font-variant:normal;font-weight:400;font-stretch:Normal;line-height:125.000000%;letter-spacing:0px;word-spacing:0px;fill:#000000;fill-opacity:1;stroke:none;font-family:Lucida Sans;text-align:start;text-anchor:start;"
     xml:space="preserve"><tspan
       id="tspan76"
       y="0.000000"
       x="0.000000"><tspan
         id="tspan74"
         style="fill:#FFFFFF;font-size:24.000000px;font-style:normal;font-variant:normal;font-weight:400;font-stretch:Normal;font-family:Lucida Sans;"
         dy="0.000000"
         dx="0.000000">check </tspan></tspan></text>
  <text
     id="text84"
     y="0.000000"
     x="0.000000"
     transform="matrix(1.000000,-0.000000,0.000000,1.000000,972.078189,145.935296)"
     style="font-size:24.000000px;font-style:normal;font-variant:normal;font-weight:400;font-stretch:Normal;line-height:125.000000%;letter-spacing:0px;word-spacing:0px;fill:#000000;fill-opacity:1;stroke:none;font-family:Lucida Sans;text-align:start;text-anchor:start;"
     xml:space="preserve"><tspan
       id="tspan82"
       y="0.000000"
       x="0.000000"><tspan
         id="tspan80"
         style="fill:#FFFFFF;font-size:24.000000px;font-style:normal;font-variant:normal;font-weight:400;font-stretch:Normal;font-family:Lucida Sans;"
         dy="0.000000"
         dx="0.000000">results with</tspan></tspan></text>
  <text
     id="text90"
     y="0.000000"
     x="0.000000"
     transform="matrix(1.000000,-0.000000,0.000000,1.000000,953.342005,174.760214)"
     style="font-size:24.000000px;font-style:normal;font-variant:normal;font-weight:400;font-stretch:Normal;line-height:125.000000%;letter-spacing:0px;word-spacing:0px;fill:#000000;fill-opacity:1;stroke:none;font-family:Lucida Sans;text-align:start;text-anchor:start;"
     xml:space="preserve"><tspan
       id="tspan88"
       y="0.000000"
       x="0.000000"><tspan
         id="tspan86"
         style="fill:#FFFFFF;font-size:24.000000px;font-style:normal;font-variant:normal;font-weight:400;font-stretch:Normal;font-family:Lucida Sans;"
         dy="0.000000"
         dx="0.000000">initial flow data</tspan></tspan></text>
  <path
     id="path92"
     d="  M 247.65392,133.63543   L 295.71544,133.63543   L 295.71544,139.72069   L 247.65392,139.72069   L 247.65392,133.63543  z    M 292.67281,127.55018   L 310.92858,136.67806   L 292.67281,145.80595   L 292.67281,127.55018  z   "
     style="fill:#7f7f7f;fill-rule:nonzero;fill-opacity:1;stroke:#7f7f7f;stroke-width:0.02001729px;stroke-linecap:butt;stroke-linejoin:round;stroke-miterlimit:4;stroke-dasharray:none;stroke-opacity:1;" />
  <path
     id="path94"
     d="  M 551.91674,133.63543   L 599.99827,133.63543   L 599.99827,139.72069   L 551.91674,139.72069   L 551.91674,133.63543  z    M 596.95565,127.55018   L 615.21141,136.67806   L 596.95565,145.80595   L 596.95565,127.55018  z   "
     style="fill:#7f7f7f;fill-rule:nonzero;fill-opacity:1;stroke:#7f7f7f;stroke-width:0.040034581px;stroke-linecap:butt;stroke-linejoin:round;stroke-miterlimit:4;stroke-dasharray:none;stroke-opacity:1;" />
  <path
     id="path96"
     d="  M 856.17956,133.63543   L 904.26109,133.63543   L 904.26109,139.72069   L 856.17956,139.72069   L 856.17956,133.63543  z    M 901.21847,127.55018   L 919.47423,136.67806   L 901.21847,145.80595   L 901.21847,127.55018  z   "
     style="fill:#7f7f7f;fill-rule:nonzero;fill-opacity:1;stroke:#7f7f7f;stroke-width:0.040034581px;stroke-linecap:butt;stroke-linejoin:round;stroke-miterlimit:4;stroke-dasharray:none;stroke-opacity:1;" />
  <text
     id="text102"
     y="0.000000"
     x="0.000000"
     transform="matrix(1.000000,-0.000000,0.000000,1.000000,15.952153,270.382304)"
     style="font-size:24.000000px;font-style:normal;font-variant:normal;font-weight:400;font-stretch:Normal;line-height:125.000000%;letter-spacing:0px;word-spacing:0px;fill:#000000;fill-opacity:1;stroke:none;font-family:Lucida Sans;text-align:start;text-anchor:start;"
     xml:space="preserve"><tspan
       id="tspan100"
       y="0.000000"
       x="0.000000"><tspan
         id="tspan98"
         style="fill:#000000;font-size:24.000000px;font-style:normal;font-variant:normal;font-weight:400;font-stretch:Normal;font-family:Lucida Sans;"
         dy="0.000000"
         dx="0.000000">ConFlowGen</tspan></tspan></text>
  <text
     id="text108"
     y="0.000000"
     x="0.000000"
     transform="matrix(1.000000,-0.000000,0.000000,1.000000,572.639720,270.382304)"
     style="font-size:24.000000px;font-style:normal;font-variant:normal;font-weight:400;font-stretch:Normal;line-height:125.000000%;letter-spacing:0px;word-spacing:0px;fill:#000000;fill-opacity:1;stroke:none;font-family:Lucida Sans;text-align:start;text-anchor:start;"
     xml:space="preserve"><tspan
       id="tspan106"
       y="0.000000"
       x="0.000000"><tspan
         id="tspan104"
         style="fill:#000000;font-size:24.000000px;font-style:normal;font-variant:normal;font-weight:400;font-stretch:Normal;font-family:Lucida Sans;"
         dy="0.000000"
         dx="0.000000">Simulator / Optimizer / …</tspan></tspan></text>
</svg>
